<?xml version="1.0" standalone="no"?>
<!DOCTYPE svg PUBLIC "-//W3C//DTD SVG 20010904//EN"
 "http://www.w3.org/TR/2001/REC-SVG-20010904/DTD/svg10.dtd">
<svg version="1.0" xmlns="http://www.w3.org/2000/svg"
 width="109.000000pt" height="94.000000pt" viewBox="0 0 109.000000 94.000000"
 preserveAspectRatio="xMidYMid meet">

<g transform="translate(0.000000,94.000000) scale(0.100000,-0.100000)"
fill="#000000" stroke="none">
<path d="M705 760 c-77 -77 -143 -140 -147 -140 -4 0 -8 24 -10 53 -5 91 -17
84 -275 -176 l-233 -233 0 -91 c0 -103 5 -123 29 -123 10 0 72 55 139 123
l122 122 0 -42 c0 -99 30 -98 132 4 l78 78 0 -52 c0 -66 12 -73 121 -73 l83 0
158 158 158 158 0 83 c0 88 -10 121 -38 121 -10 0 -71 -54 -137 -120 -118
-118 -120 -120 -127 -93 -7 25 0 35 62 98 l70 70 0 96 c0 92 -8 119 -35 119
-5 0 -73 -63 -150 -140z m13 -207 c-78 -79 -146 -143 -150 -143 -5 0 -8 37 -8
82 l0 83 148 148 147 147 3 -87 3 -87 -143 -143z m312 64 l0 -84 -145 -147
-144 -147 -88 3 -88 3 -3 53 -3 53 77 80 c43 43 81 79 86 79 4 0 8 -21 8 -47
l0 -48 142 143 c79 78 146 142 150 142 5 0 8 -38 8 -83z"/>
</g>
</svg>
